<svg xmlns="http://www.w3.org/2000/svg" viewBox="0 0 500 500">
  <style>
    @media (prefers-color-scheme: dark) {
      .a {
        fill: #fff;
      }
    }
  </style>
  <path
    class="a"
    fill="#000000"
    d="M214.332 3.757c-12.149 4.2-20.77 15.444-25.01 32.627-1.395 5.651-1.483 7.721-.527 12.28 1.655 7.89 8.21 20.715 14.436 28.242 2.957 3.575 7.342 9.425 9.746 13 2.403 3.575 9.612 13.25 16.019 21.5 14.638 18.848 21.845 29.217 26.064 37.5 3.064 6.015 3.304 7.18 3.219 15.619-.089 8.864-1.54 14.188-4.336 15.916-1.521.94-10.791-5.462-16.236-11.213-2.534-2.677-6.825-8.007-9.535-11.845-6.884-9.75-24.172-28.538-35.843-38.955-16.98-15.156-49.89-40.745-61.343-47.698C109.858 57.903 88.566 51.63 66 51.583c-21.164-.044-31.893 4.112-44.078 17.073C9.695 81.663 1 100.49 1 113.956c0 18.623 15.155 46.343 36.586 66.917 9.75 9.361 29.877 24.576 41.624 31.467 4.559 2.674 14.59 9.003 22.29 14.064 7.7 5.06 17.223 11.302 21.163 13.87 9.502 6.195 12.767 10.136 18.444 22.262l4.757 10.163-1.546 5.853c-2.635 9.975-.428 33.83 4.627 50 3.778 12.086 12.578 35.496 15.733 41.854 7.511 15.135 16.657 25.584 28.213 32.233 11.787 6.782 18.253 13.194 26.609 26.389 11.363 17.945 25.952 38.288 31.17 43.466 18.739 18.594 36.817 25.726 64.946 25.62 39.616-.148 77.458-8.612 110.608-24.738 18.779-9.136 36.363-24.528 47.893-41.924 4.58-6.909 12.304-22.449 16.774-33.743 9.309-23.522 10.701-62.415 3.41-95.221-3.492-15.713-16.851-42.933-30.175-61.486-10.773-15.001-30.901-36.613-39.737-42.666-5.568-3.815-5.953-4.378-11.58-16.938-3.635-8.115-9.319-18.248-15.142-26.992-5.127-7.7-11.987-18.195-15.245-23.323-12.252-19.288-15.573-24.038-26.339-37.677-27.13-34.368-43.806-50.51-71.255-68.982-13.005-8.752-34.485-19.173-43.328-21.02-9.554-1.997-20.79-1.85-27.168.353Zm20.64 25.228c10.064 2.32 32.171 15.145 47.528 27.574 9.787 7.92 31.755 30.405 36.491 37.347 1.313 1.925 6.174 8.139 10.803 13.808 4.628 5.67 14.949 20.52 22.935 33 7.987 12.481 15.754 24.492 17.261 26.692 4.373 6.382 7.735 13.647 9.52 20.571 3.013 11.687 10.038 21.186 21.06 28.479 10.343 6.843 26.324 23.39 34.336 35.552 7.361 11.173 15.859 27.616 19.587 37.898 5.606 15.464 8.335 49.029 5.448 67-2.548 15.855-12.783 38.974-23.686 53.5-14.606 19.46-38.103 32.432-76.064 41.99-21.455 5.403-51.465 7.097-64.691 3.653-8.431-2.196-12.243-4.086-19.554-9.696-7.271-5.58-9.989-9.05-26.189-33.447-18.189-27.391-22.5-32.451-33.974-39.867-13.263-8.573-14.567-9.739-19.685-17.594-5.442-8.352-6.132-9.94-13.914-32.039-7.821-22.207-9.287-32.097-6.719-45.319 1.154-5.943 1.53-10.728 1.079-13.736-1.144-7.628-13.636-31.35-20.298-38.546-5.587-6.034-33.162-25.093-54.78-37.862-12.148-7.175-30.769-21.331-39.502-30.03-16.357-16.293-26.404-33.612-26.444-45.582-.039-11.843 12.217-31.25 22.124-35.033 4.333-1.655 5.164-1.66 14.911-.092 27.123 4.363 45.782 15.538 91.822 54.993 13.538 11.602 29.83 28.798 39.798 42.008 14.198 18.816 18.649 23.468 29.163 30.48 12.034 8.026 19.843 10.79 28.084 9.939 3.033-.313 6.874-1.372 8.536-2.354 3.038-1.795 12.281-13.873 15.555-20.326 2.57-5.065 4.121-24.921 2.755-35.268-1.47-11.131-8.984-26.105-21.465-42.772a16934.09 16934.09 0 0 0-25.947-34.5c-9.123-12.1-17.773-24.348-19.222-27.217-3.573-7.076-3.464-12.302.396-19.033 3.324-5.797 4.392-6.14 12.942-4.17ZM395.5 251.851c-3.29 1.347-5.347 4.306-9.486 13.649-2.164 4.884-4.372 9.025-4.907 9.204-.535.178-3.975-.604-7.645-1.737-9.747-3.01-12.965-2.758-17.062 1.339-2.795 2.795-3.4 4.152-3.4 7.632 0 5.001 3.012 10.429 6.847 12.337 1.459.726 4.802 1.901 7.429 2.613 2.626.711 4.981 1.624 5.232 2.03.25.406-.265 2.854-1.146 5.439-2.307 6.77-1.436 13.818 2.171 17.583 3.594 3.752 8.579 4.76 13.033 2.636 3.637-1.734 5.349-4.474 9.477-15.163 2.605-6.747 2.841-7.017 6.672-7.671 12.797-2.185 22.582-11.479 20.665-19.628-.983-4.174-5.294-8.171-9.55-8.851-3.678-.588-3.728-.655-2.433-3.229 2.357-4.684 2.692-7.979 1.18-11.598-2.512-6.012-10.732-9.182-17.077-6.585Zm-107.656 23.797c-2.01.967-6.225 4.796-9.367 8.508-3.141 3.712-6.024 6.75-6.407 6.75s-2.018-1.405-3.633-3.123c-9.486-10.087-23.437-6.145-23.437 6.623 0 4.992 2.077 8.525 8.025 13.649l5.1 4.394-2.051 4.784c-4.153 9.69-5.28 15.194-4.047 19.773 2.265 8.411 10.52 12.917 17.535 9.572 4.394-2.096 6.432-5.393 7.336-11.867.407-2.918 1.514-6.778 2.459-8.579l1.719-3.274 6.221.637c6.995.717 12.406-.439 17.071-3.646 9.469-6.51 10.109-17.679 1.284-22.431l-3.503-1.886 1.926-2.448c2.355-2.995 2.533-9.32.356-12.644-3.632-5.542-10.75-7.598-16.587-4.792Zm68.656 56.923c-1.65.257-9.031 1.329-16.403 2.382-11.853 1.694-13.954 2.293-18.17 5.184-11.167 7.656-10.64 15.832 1.655 25.685 3.569 2.86 8.922 8.489 11.896 12.51 4.018 5.434 6.44 7.724 9.436 8.923 7.448 2.98 13.842-.365 16.209-8.481.701-2.403 4.198-9.318 7.771-15.368 8.107-13.727 9.337-17.081 8.017-21.859-1.931-6.995-10.09-10.583-20.411-8.976Z"
  />
</svg>